<svg width="1082" height="1419" viewBox="0 0 1082 1419" fill="none" xmlns="http://www.w3.org/2000/svg">
<path d="M199.583 933.75H250.417M225 842.25V933.75M179.25 862.583H189.417C199.583 862.583 214.833 857.5 225 852.417C235.167 857.5 250.417 862.583 260.583 862.583H270.75M245.333 908.333L260.583 867.667L275.833 908.333C271.411 911.638 266.073 913.417 260.583 913.417C255.093 913.417 249.756 911.638 245.333 908.333ZM174.167 908.333L189.417 867.667L204.667 908.333C200.244 911.638 194.907 913.417 189.417 913.417C183.927 913.417 178.589 911.638 174.167 908.333Z" stroke="#73FFB9" stroke-width="3" stroke-linecap="square"/>
<path d="M355.261 1326.45V1357H346.969V1326.45H355.261ZM359.311 1357V1334.09H367.126V1338.45H367.365C367.842 1337.01 368.657 1335.88 369.811 1335.05C370.964 1334.21 372.336 1333.79 373.927 1333.79C375.538 1333.79 376.925 1334.22 378.088 1335.08C379.252 1335.92 379.953 1337.04 380.191 1338.45H380.43C380.818 1337.04 381.643 1335.92 382.906 1335.08C384.169 1334.22 385.65 1333.79 387.35 1333.79C389.548 1333.79 391.328 1334.5 392.69 1335.91C394.062 1337.32 394.748 1339.2 394.748 1341.55V1357H386.515V1343.64C386.515 1342.63 386.262 1341.85 385.755 1341.28C385.248 1340.7 384.566 1340.41 383.711 1340.41C382.866 1340.41 382.195 1340.7 381.698 1341.28C381.211 1341.85 380.967 1342.63 380.967 1343.64V1357H373.092V1343.64C373.092 1342.63 372.838 1341.85 372.331 1341.28C371.824 1340.7 371.143 1340.41 370.288 1340.41C369.721 1340.41 369.234 1340.54 368.826 1340.8C368.419 1341.06 368.1 1341.43 367.872 1341.92C367.653 1342.4 367.544 1342.97 367.544 1343.64V1357H359.311ZM398.809 1357V1334.09H406.624V1338.45H406.863C407.34 1337.01 408.155 1335.88 409.309 1335.05C410.462 1334.21 411.834 1333.79 413.425 1333.79C415.036 1333.79 416.423 1334.22 417.586 1335.08C418.75 1335.92 419.451 1337.04 419.689 1338.45H419.928C420.316 1337.04 421.141 1335.92 422.404 1335.08C423.667 1334.22 425.148 1333.79 426.849 1333.79C429.046 1333.79 430.826 1334.5 432.188 1335.91C433.56 1337.32 434.246 1339.2 434.246 1341.55V1357H426.013V1343.64C426.013 1342.63 425.76 1341.85 425.253 1341.28C424.746 1340.7 424.064 1340.41 423.209 1340.41C422.364 1340.41 421.693 1340.7 421.196 1341.28C420.709 1341.85 420.465 1342.63 420.465 1343.64V1357H412.59V1343.64C412.59 1342.63 412.336 1341.85 411.829 1341.28C411.322 1340.7 410.641 1340.41 409.786 1340.41C409.219 1340.41 408.732 1340.54 408.324 1340.8C407.917 1341.06 407.599 1341.43 407.37 1341.92C407.151 1342.4 407.042 1342.97 407.042 1343.64V1357H398.809ZM438.307 1357V1334.09H446.54V1357H438.307ZM442.423 1331.7C441.31 1331.7 440.355 1331.34 439.56 1330.6C438.764 1329.87 438.366 1328.98 438.366 1327.95C438.366 1326.91 438.764 1326.03 439.56 1325.29C440.355 1324.56 441.31 1324.19 442.423 1324.19C443.547 1324.19 444.501 1324.56 445.287 1325.29C446.082 1326.03 446.48 1326.91 446.48 1327.95C446.48 1328.98 446.082 1329.87 445.287 1330.6C444.501 1331.34 443.547 1331.7 442.423 1331.7ZM461.771 1366.07C459.475 1366.07 457.506 1365.74 455.865 1365.08C454.235 1364.44 452.967 1363.54 452.062 1362.4C451.167 1361.27 450.665 1359.96 450.556 1358.49H458.49C458.57 1358.98 458.769 1359.37 459.087 1359.67C459.405 1359.97 459.813 1360.18 460.31 1360.31C460.817 1360.45 461.384 1360.52 462.01 1360.52C463.074 1360.52 463.954 1360.26 464.65 1359.74C465.356 1359.23 465.709 1358.29 465.709 1356.94V1353.06H465.47C465.172 1353.84 464.715 1354.5 464.098 1355.05C463.482 1355.58 462.741 1356 461.876 1356.28C461.011 1356.56 460.061 1356.7 459.027 1356.7C457.396 1356.7 455.895 1356.32 454.523 1355.57C453.161 1354.81 452.067 1353.61 451.242 1351.97C450.426 1350.33 450.019 1348.19 450.019 1345.55C450.019 1342.78 450.446 1340.53 451.301 1338.8C452.166 1337.07 453.28 1335.81 454.642 1335C456.014 1334.2 457.456 1333.79 458.968 1333.79C460.101 1333.79 461.095 1333.99 461.95 1334.39C462.806 1334.78 463.521 1335.3 464.098 1335.96C464.675 1336.6 465.112 1337.31 465.411 1338.09H465.59V1334.09H473.823V1356.94C473.823 1358.88 473.32 1360.52 472.316 1361.88C471.322 1363.24 469.92 1364.28 468.11 1364.99C466.301 1365.71 464.188 1366.07 461.771 1366.07ZM462.07 1350.86C462.825 1350.86 463.472 1350.65 464.009 1350.23C464.556 1349.8 464.973 1349.19 465.262 1348.41C465.56 1347.61 465.709 1346.66 465.709 1345.55C465.709 1344.41 465.56 1343.44 465.262 1342.64C464.973 1341.82 464.556 1341.2 464.009 1340.77C463.472 1340.34 462.825 1340.12 462.07 1340.12C461.314 1340.12 460.668 1340.34 460.131 1340.77C459.604 1341.2 459.196 1341.82 458.908 1342.64C458.629 1343.44 458.49 1344.41 458.49 1345.55C458.49 1346.68 458.629 1347.64 458.908 1348.44C459.196 1349.22 459.604 1349.83 460.131 1350.24C460.668 1350.65 461.314 1350.86 462.07 1350.86ZM478.01 1357V1334.09H486.004V1338.45H486.243C486.661 1336.84 487.322 1335.66 488.227 1334.91C489.141 1334.17 490.21 1333.79 491.433 1333.79C491.791 1333.79 492.144 1333.82 492.492 1333.88C492.85 1333.93 493.193 1334.01 493.521 1334.11V1341.13C493.114 1340.99 492.612 1340.89 492.015 1340.82C491.418 1340.75 490.906 1340.71 490.479 1340.71C489.673 1340.71 488.947 1340.9 488.301 1341.26C487.665 1341.62 487.163 1342.13 486.795 1342.79C486.427 1343.43 486.243 1344.19 486.243 1345.07V1357H478.01ZM501.538 1357.36C500.076 1357.36 498.784 1357.12 497.66 1356.64C496.547 1356.15 495.672 1355.42 495.035 1354.43C494.399 1353.45 494.081 1352.2 494.081 1350.68C494.081 1349.42 494.294 1348.35 494.722 1347.47C495.15 1346.57 495.746 1345.84 496.512 1345.28C497.277 1344.71 498.167 1344.28 499.181 1343.98C500.206 1343.68 501.309 1343.49 502.493 1343.4C503.775 1343.3 504.804 1343.18 505.58 1343.04C506.365 1342.89 506.932 1342.69 507.28 1342.43C507.628 1342.16 507.802 1341.81 507.802 1341.37V1341.31C507.802 1340.71 507.574 1340.26 507.116 1339.94C506.659 1339.62 506.072 1339.46 505.356 1339.46C504.571 1339.46 503.929 1339.63 503.432 1339.98C502.945 1340.32 502.652 1340.84 502.552 1341.55H494.975C495.075 1340.16 495.517 1338.87 496.303 1337.7C497.098 1336.52 498.257 1335.57 499.778 1334.87C501.299 1334.15 503.199 1333.79 505.475 1333.79C507.116 1333.79 508.588 1333.99 509.89 1334.37C511.193 1334.75 512.301 1335.28 513.216 1335.97C514.131 1336.65 514.827 1337.44 515.304 1338.36C515.792 1339.26 516.035 1340.25 516.035 1341.31V1357H508.339V1353.78H508.16C507.703 1354.63 507.146 1355.32 506.49 1355.85C505.843 1356.38 505.103 1356.76 504.267 1357C503.442 1357.24 502.532 1357.36 501.538 1357.36ZM504.223 1352.17C504.849 1352.17 505.436 1352.04 505.983 1351.78C506.539 1351.52 506.992 1351.15 507.34 1350.66C507.688 1350.17 507.862 1349.58 507.862 1348.89V1346.98C507.643 1347.07 507.409 1347.15 507.161 1347.23C506.922 1347.31 506.664 1347.38 506.385 1347.45C506.117 1347.52 505.828 1347.59 505.52 1347.65C505.222 1347.71 504.909 1347.76 504.581 1347.81C503.944 1347.91 503.422 1348.08 503.015 1348.3C502.617 1348.52 502.319 1348.8 502.12 1349.12C501.931 1349.44 501.836 1349.8 501.836 1350.2C501.836 1350.84 502.06 1351.32 502.507 1351.66C502.955 1352 503.527 1352.17 504.223 1352.17ZM533.631 1334.09V1340.06H518.537V1334.09H533.631ZM521.46 1328.6H529.693V1349.63C529.693 1349.95 529.748 1350.22 529.857 1350.44C529.967 1350.65 530.136 1350.81 530.365 1350.91C530.593 1351.01 530.887 1351.06 531.244 1351.06C531.493 1351.06 531.781 1351.03 532.11 1350.97C532.448 1350.91 532.696 1350.87 532.855 1350.83L534.048 1356.61C533.681 1356.72 533.154 1356.86 532.468 1357.01C531.791 1357.17 530.986 1357.28 530.051 1357.33C528.162 1357.43 526.576 1357.23 525.294 1356.75C524.011 1356.25 523.046 1355.47 522.4 1354.4C521.754 1353.34 521.441 1352.01 521.46 1350.41V1328.6ZM536.99 1357V1334.09H545.223V1357H536.99ZM541.107 1331.7C539.993 1331.7 539.039 1331.34 538.243 1330.6C537.448 1329.87 537.05 1328.98 537.05 1327.95C537.05 1326.91 537.448 1326.03 538.243 1325.29C539.039 1324.56 539.993 1324.19 541.107 1324.19C542.23 1324.19 543.185 1324.56 543.971 1325.29C544.766 1326.03 545.164 1326.91 545.164 1327.95C545.164 1328.98 544.766 1329.87 543.971 1330.6C543.185 1331.34 542.23 1331.7 541.107 1331.7ZM560.455 1357.42C557.969 1357.42 555.841 1356.93 554.072 1355.94C552.302 1354.95 550.944 1353.56 550 1351.79C549.055 1350.01 548.583 1347.95 548.583 1345.61C548.583 1343.26 549.055 1341.2 550 1339.43C550.944 1337.65 552.302 1336.27 554.072 1335.28C555.841 1334.29 557.969 1333.79 560.455 1333.79C562.941 1333.79 565.069 1334.29 566.839 1335.28C568.608 1336.27 569.966 1337.65 570.91 1339.43C571.855 1341.2 572.327 1343.26 572.327 1345.61C572.327 1347.95 571.855 1350.01 570.91 1351.79C569.966 1353.56 568.608 1354.95 566.839 1355.94C565.069 1356.93 562.941 1357.42 560.455 1357.42ZM560.515 1351.33C561.211 1351.33 561.812 1351.1 562.319 1350.63C562.827 1350.16 563.219 1349.5 563.498 1348.63C563.776 1347.77 563.915 1346.74 563.915 1345.55C563.915 1344.34 563.776 1343.31 563.498 1342.46C563.219 1341.59 562.827 1340.93 562.319 1340.46C561.812 1339.99 561.211 1339.76 560.515 1339.76C559.779 1339.76 559.148 1339.99 558.621 1340.46C558.094 1340.93 557.691 1341.59 557.412 1342.46C557.134 1343.31 556.995 1344.34 556.995 1345.55C556.995 1346.74 557.134 1347.77 557.412 1348.63C557.691 1349.5 558.094 1350.16 558.621 1350.63C559.148 1351.1 559.779 1351.33 560.515 1351.33ZM583.901 1344.11V1357H575.668V1334.09H583.483V1338.45H583.722C584.219 1336.99 585.094 1335.86 586.347 1335.03C587.61 1334.21 589.081 1333.79 590.762 1333.79C592.383 1333.79 593.79 1334.17 594.983 1334.91C596.186 1335.65 597.116 1336.66 597.772 1337.95C598.438 1339.25 598.766 1340.72 598.756 1342.38V1357H590.523V1344.11C590.533 1342.98 590.245 1342.09 589.658 1341.44C589.081 1340.8 588.276 1340.47 587.242 1340.47C586.566 1340.47 585.974 1340.62 585.467 1340.92C584.97 1341.21 584.587 1341.63 584.319 1342.17C584.05 1342.71 583.911 1343.36 583.901 1344.11ZM623.761 1341.55H616.184C616.144 1341.08 615.98 1340.68 615.692 1340.34C615.404 1340 615.031 1339.74 614.573 1339.56C614.126 1339.38 613.629 1339.28 613.082 1339.28C612.376 1339.28 611.769 1339.41 611.262 1339.67C610.755 1339.93 610.507 1340.3 610.517 1340.77C610.507 1341.11 610.651 1341.42 610.949 1341.71C611.257 1342 611.849 1342.22 612.724 1342.38L617.377 1343.22C619.724 1343.65 621.469 1344.37 622.612 1345.38C623.766 1346.39 624.347 1347.73 624.357 1349.42C624.347 1351.05 623.86 1352.47 622.896 1353.67C621.941 1354.87 620.634 1355.79 618.973 1356.45C617.323 1357.09 615.438 1357.42 613.32 1357.42C609.82 1357.42 607.081 1356.7 605.102 1355.27C603.134 1353.84 602.035 1351.95 601.806 1349.6H609.98C610.089 1350.33 610.447 1350.89 611.053 1351.29C611.67 1351.68 612.445 1351.87 613.38 1351.87C614.136 1351.87 614.757 1351.74 615.244 1351.48C615.742 1351.22 615.995 1350.86 616.005 1350.38C615.995 1349.94 615.776 1349.59 615.349 1349.33C614.931 1349.08 614.275 1348.87 613.38 1348.71L609.323 1347.99C606.987 1347.58 605.237 1346.81 604.073 1345.66C602.91 1344.52 602.333 1343.05 602.343 1341.25C602.333 1339.66 602.751 1338.31 603.596 1337.21C604.451 1336.09 605.669 1335.25 607.25 1334.67C608.841 1334.09 610.725 1333.79 612.903 1333.79C616.214 1333.79 618.824 1334.48 620.733 1335.85C622.652 1337.22 623.661 1339.12 623.761 1341.55Z" fill="#73FFB9"/>
<path d="M170.969 1137V1106.45H192.983V1113.14H179.261V1118.39H191.849V1125.07H179.261V1130.32H192.923V1137H170.969ZM205.508 1137.3C203.877 1137.3 202.376 1136.87 201.003 1136.02C199.641 1135.16 198.547 1133.86 197.722 1132.12C196.907 1130.38 196.499 1128.19 196.499 1125.55C196.499 1122.78 196.927 1120.53 197.782 1118.8C198.647 1117.07 199.76 1115.81 201.123 1115C202.495 1114.2 203.937 1113.79 205.448 1113.79C206.581 1113.79 207.576 1113.99 208.431 1114.39C209.286 1114.78 210.002 1115.3 210.579 1115.96C211.155 1116.6 211.593 1117.31 211.891 1118.09H212.01V1106.45H220.243V1137H212.07V1133.24H211.891C211.573 1134.02 211.116 1134.71 210.519 1135.33C209.932 1135.94 209.216 1136.42 208.371 1136.78C207.536 1137.12 206.581 1137.3 205.508 1137.3ZM208.55 1130.97C209.306 1130.97 209.952 1130.76 210.489 1130.32C211.036 1129.87 211.454 1129.24 211.742 1128.44C212.04 1127.62 212.189 1126.66 212.189 1125.55C212.189 1124.41 212.04 1123.44 211.742 1122.64C211.454 1121.82 211.036 1121.2 210.489 1120.77C209.952 1120.34 209.306 1120.12 208.55 1120.12C207.795 1120.12 207.148 1120.34 206.611 1120.77C206.084 1121.2 205.677 1121.82 205.388 1122.64C205.11 1123.44 204.971 1124.41 204.971 1125.55C204.971 1126.68 205.11 1127.65 205.388 1128.47C205.677 1129.27 206.084 1129.9 206.611 1130.33C207.148 1130.76 207.795 1130.97 208.55 1130.97ZM239.14 1126.98V1114.09H247.373V1137H239.558V1132.64H239.319C238.822 1134.11 237.952 1135.25 236.709 1136.08C235.466 1136.89 233.99 1137.3 232.28 1137.3C230.679 1137.3 229.277 1136.93 228.074 1136.19C226.881 1135.46 225.951 1134.44 225.285 1133.15C224.628 1131.86 224.295 1130.38 224.285 1128.71V1114.09H232.518V1126.98C232.528 1128.11 232.817 1129 233.383 1129.65C233.96 1130.29 234.765 1130.62 235.8 1130.62C236.486 1130.62 237.077 1130.47 237.574 1130.18C238.081 1129.89 238.469 1129.47 238.738 1128.93C239.016 1128.38 239.15 1127.73 239.14 1126.98ZM262.598 1137.42C260.112 1137.42 257.984 1136.93 256.214 1135.94C254.444 1134.95 253.087 1133.56 252.142 1131.79C251.198 1130.01 250.725 1127.95 250.725 1125.61C250.725 1123.26 251.198 1121.2 252.142 1119.43C253.087 1117.65 254.444 1116.27 256.214 1115.28C257.984 1114.29 260.112 1113.79 262.598 1113.79C264.845 1113.79 266.789 1114.2 268.429 1115.02C270.08 1115.82 271.358 1116.96 272.262 1118.45C273.167 1119.92 273.625 1121.65 273.635 1123.64H265.998C265.889 1122.43 265.541 1121.52 264.954 1120.89C264.377 1120.26 263.632 1119.94 262.717 1119.94C262.001 1119.94 261.375 1120.15 260.838 1120.56C260.301 1120.97 259.883 1121.59 259.585 1122.43C259.287 1123.25 259.137 1124.29 259.137 1125.55C259.137 1126.8 259.287 1127.84 259.585 1128.68C259.883 1129.5 260.301 1130.12 260.838 1130.54C261.375 1130.95 262.001 1131.15 262.717 1131.15C263.324 1131.15 263.86 1131.01 264.328 1130.74C264.795 1130.45 265.173 1130.03 265.461 1129.48C265.76 1128.93 265.939 1128.25 265.998 1127.45H273.635C273.605 1129.47 273.142 1131.23 272.248 1132.73C271.353 1134.23 270.085 1135.38 268.444 1136.19C266.814 1137.01 264.865 1137.42 262.598 1137.42ZM283.415 1137.36C281.953 1137.36 280.661 1137.12 279.537 1136.64C278.423 1136.15 277.548 1135.42 276.912 1134.43C276.276 1133.45 275.958 1132.2 275.958 1130.68C275.958 1129.42 276.171 1128.35 276.599 1127.47C277.026 1126.57 277.623 1125.84 278.389 1125.28C279.154 1124.71 280.044 1124.28 281.058 1123.98C282.083 1123.68 283.186 1123.49 284.369 1123.4C285.652 1123.3 286.681 1123.18 287.457 1123.04C288.242 1122.89 288.809 1122.69 289.157 1122.43C289.505 1122.16 289.679 1121.81 289.679 1121.37V1121.31C289.679 1120.71 289.45 1120.26 288.993 1119.94C288.536 1119.62 287.949 1119.46 287.233 1119.46C286.448 1119.46 285.806 1119.63 285.309 1119.98C284.822 1120.32 284.529 1120.84 284.429 1121.55H276.852C276.952 1120.16 277.394 1118.87 278.18 1117.7C278.975 1116.52 280.134 1115.57 281.655 1114.87C283.176 1114.15 285.075 1113.79 287.352 1113.79C288.993 1113.79 290.465 1113.99 291.767 1114.37C293.07 1114.75 294.178 1115.28 295.093 1115.97C296.008 1116.65 296.704 1117.44 297.181 1118.36C297.669 1119.26 297.912 1120.25 297.912 1121.31V1137H290.216V1133.78H290.037C289.58 1134.63 289.023 1135.32 288.367 1135.85C287.72 1136.38 286.98 1136.76 286.144 1137C285.319 1137.24 284.409 1137.36 283.415 1137.36ZM286.1 1132.17C286.726 1132.17 287.313 1132.04 287.86 1131.78C288.416 1131.52 288.869 1131.15 289.217 1130.66C289.565 1130.17 289.739 1129.58 289.739 1128.89V1126.98C289.52 1127.07 289.286 1127.15 289.038 1127.23C288.799 1127.31 288.541 1127.38 288.262 1127.45C287.994 1127.52 287.705 1127.59 287.397 1127.65C287.099 1127.71 286.786 1127.76 286.458 1127.81C285.821 1127.91 285.299 1128.08 284.892 1128.3C284.494 1128.52 284.195 1128.8 283.997 1129.12C283.808 1129.44 283.713 1129.8 283.713 1130.2C283.713 1130.84 283.937 1131.32 284.384 1131.66C284.832 1132 285.404 1132.17 286.1 1132.17ZM315.508 1114.09V1120.06H300.414V1114.09H315.508ZM303.337 1108.6H311.57V1129.63C311.57 1129.95 311.625 1130.22 311.734 1130.44C311.844 1130.65 312.013 1130.81 312.241 1130.91C312.47 1131.01 312.763 1131.06 313.121 1131.06C313.37 1131.06 313.658 1131.03 313.987 1130.97C314.325 1130.91 314.573 1130.87 314.732 1130.83L315.925 1136.61C315.558 1136.72 315.031 1136.86 314.344 1137.01C313.668 1137.17 312.863 1137.28 311.928 1137.33C310.039 1137.43 308.453 1137.23 307.17 1136.75C305.888 1136.25 304.923 1135.47 304.277 1134.4C303.631 1133.34 303.317 1132.01 303.337 1130.41V1108.6ZM318.867 1137V1114.09H327.1V1137H318.867ZM322.984 1111.7C321.87 1111.7 320.916 1111.34 320.12 1110.6C319.325 1109.87 318.927 1108.98 318.927 1107.95C318.927 1106.91 319.325 1106.03 320.12 1105.29C320.916 1104.56 321.87 1104.19 322.984 1104.19C324.107 1104.19 325.062 1104.56 325.847 1105.29C326.643 1106.03 327.041 1106.91 327.041 1107.95C327.041 1108.98 326.643 1109.87 325.847 1110.6C325.062 1111.34 324.107 1111.7 322.984 1111.7ZM342.332 1137.42C339.846 1137.42 337.718 1136.93 335.949 1135.94C334.179 1134.95 332.821 1133.56 331.877 1131.79C330.932 1130.01 330.46 1127.95 330.46 1125.61C330.46 1123.26 330.932 1121.2 331.877 1119.43C332.821 1117.65 334.179 1116.27 335.949 1115.28C337.718 1114.29 339.846 1113.79 342.332 1113.79C344.818 1113.79 346.946 1114.29 348.716 1115.28C350.485 1116.27 351.843 1117.65 352.787 1119.43C353.732 1121.2 354.204 1123.26 354.204 1125.61C354.204 1127.95 353.732 1130.01 352.787 1131.79C351.843 1133.56 350.485 1134.95 348.716 1135.94C346.946 1136.93 344.818 1137.42 342.332 1137.42ZM342.392 1131.33C343.088 1131.33 343.689 1131.1 344.196 1130.63C344.703 1130.16 345.096 1129.5 345.375 1128.63C345.653 1127.77 345.792 1126.74 345.792 1125.55C345.792 1124.34 345.653 1123.31 345.375 1122.46C345.096 1121.59 344.703 1120.93 344.196 1120.46C343.689 1119.99 343.088 1119.76 342.392 1119.76C341.656 1119.76 341.025 1119.99 340.498 1120.46C339.971 1120.93 339.568 1121.59 339.289 1122.46C339.011 1123.31 338.872 1124.34 338.872 1125.55C338.872 1126.74 339.011 1127.77 339.289 1128.63C339.568 1129.5 339.971 1130.16 340.498 1130.63C341.025 1131.1 341.656 1131.33 342.392 1131.33ZM365.778 1124.11V1137H357.545V1114.09H365.36V1118.45H365.599C366.096 1116.99 366.971 1115.86 368.224 1115.03C369.487 1114.21 370.958 1113.79 372.639 1113.79C374.26 1113.79 375.667 1114.17 376.86 1114.91C378.063 1115.65 378.993 1116.66 379.649 1117.95C380.315 1119.25 380.643 1120.72 380.633 1122.38V1137H372.4V1124.11C372.41 1122.98 372.122 1122.09 371.535 1121.44C370.958 1120.8 370.153 1120.47 369.119 1120.47C368.443 1120.47 367.851 1120.62 367.344 1120.92C366.847 1121.21 366.464 1121.63 366.196 1122.17C365.927 1122.71 365.788 1123.36 365.778 1124.11ZM391.081 1137.36C389.619 1137.36 388.327 1137.12 387.203 1136.64C386.089 1136.15 385.214 1135.42 384.578 1134.43C383.942 1133.45 383.624 1132.2 383.624 1130.68C383.624 1129.42 383.837 1128.35 384.265 1127.47C384.692 1126.57 385.289 1125.84 386.055 1125.28C386.82 1124.71 387.71 1124.28 388.724 1123.98C389.749 1123.68 390.852 1123.49 392.036 1123.4C393.318 1123.3 394.347 1123.18 395.123 1123.04C395.908 1122.89 396.475 1122.69 396.823 1122.43C397.171 1122.16 397.345 1121.81 397.345 1121.37V1121.31C397.345 1120.71 397.116 1120.26 396.659 1119.94C396.202 1119.62 395.615 1119.46 394.899 1119.46C394.114 1119.46 393.472 1119.63 392.975 1119.98C392.488 1120.32 392.195 1120.84 392.095 1121.55H384.518C384.618 1120.16 385.06 1118.87 385.846 1117.7C386.641 1116.52 387.8 1115.57 389.321 1114.87C390.842 1114.15 392.741 1113.79 395.018 1113.79C396.659 1113.79 398.131 1113.99 399.433 1114.37C400.736 1114.75 401.844 1115.28 402.759 1115.97C403.674 1116.65 404.37 1117.44 404.847 1118.36C405.335 1119.26 405.578 1120.25 405.578 1121.31V1137H397.882V1133.78H397.703C397.246 1134.63 396.689 1135.32 396.033 1135.85C395.386 1136.38 394.646 1136.76 393.81 1137C392.985 1137.24 392.075 1137.36 391.081 1137.36ZM393.766 1132.17C394.392 1132.17 394.979 1132.04 395.526 1131.78C396.082 1131.52 396.535 1131.15 396.883 1130.66C397.231 1130.17 397.405 1129.58 397.405 1128.89V1126.98C397.186 1127.07 396.952 1127.15 396.704 1127.23C396.465 1127.31 396.207 1127.38 395.928 1127.45C395.66 1127.52 395.371 1127.59 395.063 1127.65C394.765 1127.71 394.452 1127.76 394.124 1127.81C393.487 1127.91 392.965 1128.08 392.558 1128.3C392.16 1128.52 391.862 1128.8 391.663 1129.12C391.474 1129.44 391.379 1129.8 391.379 1130.2C391.379 1130.84 391.603 1131.32 392.05 1131.66C392.498 1132 393.07 1132.17 393.766 1132.17ZM417.745 1106.45V1137H409.512V1106.45H417.745ZM438.48 1106.45V1137H430.188V1106.45H438.48ZM450.762 1124.11V1137H442.529V1114.09H450.345V1118.45H450.583C451.081 1116.99 451.956 1115.86 453.208 1115.03C454.471 1114.21 455.943 1113.79 457.623 1113.79C459.244 1113.79 460.651 1114.17 461.844 1114.91C463.047 1115.65 463.977 1116.66 464.633 1117.95C465.299 1119.25 465.627 1120.72 465.618 1122.38V1137H457.385V1124.11C457.395 1122.98 457.106 1122.09 456.52 1121.44C455.943 1120.8 455.137 1120.47 454.103 1120.47C453.427 1120.47 452.836 1120.62 452.328 1120.92C451.831 1121.21 451.449 1121.63 451.18 1122.17C450.912 1122.71 450.772 1123.36 450.762 1124.11ZM490.622 1121.55H483.045C483.006 1121.08 482.842 1120.68 482.553 1120.34C482.265 1120 481.892 1119.74 481.435 1119.56C480.987 1119.38 480.49 1119.28 479.943 1119.28C479.237 1119.28 478.631 1119.41 478.124 1119.67C477.616 1119.93 477.368 1120.3 477.378 1120.77C477.368 1121.11 477.512 1121.42 477.81 1121.71C478.119 1122 478.71 1122.22 479.585 1122.38L484.239 1123.22C486.585 1123.65 488.33 1124.37 489.474 1125.38C490.627 1126.39 491.209 1127.73 491.219 1129.42C491.209 1131.05 490.722 1132.47 489.757 1133.67C488.803 1134.87 487.495 1135.79 485.835 1136.45C484.184 1137.09 482.3 1137.42 480.182 1137.42C476.682 1137.42 473.942 1136.7 471.964 1135.27C469.995 1133.84 468.896 1131.95 468.668 1129.6H476.841C476.95 1130.33 477.308 1130.89 477.915 1131.29C478.531 1131.68 479.307 1131.87 480.241 1131.87C480.997 1131.87 481.619 1131.74 482.106 1131.48C482.603 1131.22 482.857 1130.86 482.866 1130.38C482.857 1129.94 482.638 1129.59 482.21 1129.33C481.793 1129.08 481.136 1128.87 480.241 1128.71L476.185 1127.99C473.848 1127.58 472.098 1126.81 470.935 1125.66C469.771 1124.52 469.195 1123.05 469.205 1121.25C469.195 1119.66 469.612 1118.31 470.457 1117.21C471.313 1116.09 472.531 1115.25 474.112 1114.67C475.702 1114.09 477.587 1113.79 479.764 1113.79C483.075 1113.79 485.685 1114.48 487.594 1115.85C489.513 1117.22 490.523 1119.12 490.622 1121.55ZM494.373 1137V1114.09H502.606V1137H494.373ZM498.49 1111.7C497.376 1111.7 496.422 1111.34 495.626 1110.6C494.831 1109.87 494.433 1108.98 494.433 1107.95C494.433 1106.91 494.831 1106.03 495.626 1105.29C496.422 1104.56 497.376 1104.19 498.49 1104.19C499.613 1104.19 500.568 1104.56 501.353 1105.29C502.149 1106.03 502.547 1106.91 502.547 1107.95C502.547 1108.98 502.149 1109.87 501.353 1110.6C500.568 1111.34 499.613 1111.7 498.49 1111.7ZM520.463 1114.09V1120.06H505.369V1114.09H520.463ZM508.292 1108.6H516.525V1129.63C516.525 1129.95 516.58 1130.22 516.689 1130.44C516.799 1130.65 516.968 1130.81 517.197 1130.91C517.425 1131.01 517.719 1131.06 518.077 1131.06C518.325 1131.06 518.613 1131.03 518.942 1130.97C519.28 1130.91 519.528 1130.87 519.687 1130.83L520.881 1136.61C520.513 1136.72 519.986 1136.86 519.3 1137.01C518.623 1137.17 517.818 1137.28 516.883 1137.33C514.994 1137.43 513.408 1137.23 512.126 1136.75C510.843 1136.25 509.878 1135.47 509.232 1134.4C508.586 1133.34 508.273 1132.01 508.292 1130.41V1108.6ZM538.678 1126.98V1114.09H546.911V1137H539.095V1132.64H538.857C538.359 1134.11 537.489 1135.25 536.246 1136.08C535.004 1136.89 533.527 1137.3 531.817 1137.3C530.216 1137.3 528.814 1136.93 527.611 1136.19C526.418 1135.46 525.488 1134.44 524.822 1133.15C524.165 1131.86 523.832 1130.38 523.822 1128.71V1114.09H532.055V1126.98C532.065 1128.11 532.354 1129 532.92 1129.65C533.497 1130.29 534.303 1130.62 535.337 1130.62C536.023 1130.62 536.614 1130.47 537.112 1130.18C537.619 1129.89 538.006 1129.47 538.275 1128.93C538.553 1128.38 538.688 1127.73 538.678 1126.98ZM564.76 1114.09V1120.06H549.666V1114.09H564.76ZM552.589 1108.6H560.822V1129.63C560.822 1129.95 560.877 1130.22 560.986 1130.44C561.096 1130.65 561.265 1130.81 561.493 1130.91C561.722 1131.01 562.015 1131.06 562.373 1131.06C562.622 1131.06 562.91 1131.03 563.238 1130.97C563.577 1130.91 563.825 1130.87 563.984 1130.83L565.177 1136.61C564.809 1136.72 564.282 1136.86 563.596 1137.01C562.92 1137.17 562.115 1137.28 561.18 1137.33C559.291 1137.43 557.705 1137.23 556.422 1136.75C555.14 1136.25 554.175 1135.47 553.529 1134.4C552.883 1133.34 552.569 1132.01 552.589 1130.41V1108.6ZM568.119 1137V1114.09H576.352V1137H568.119ZM572.236 1111.7C571.122 1111.7 570.168 1111.34 569.372 1110.6C568.577 1109.87 568.179 1108.98 568.179 1107.95C568.179 1106.91 568.577 1106.03 569.372 1105.29C570.168 1104.56 571.122 1104.19 572.236 1104.19C573.359 1104.19 574.314 1104.56 575.099 1105.29C575.895 1106.03 576.293 1106.91 576.293 1107.95C576.293 1108.98 575.895 1109.87 575.099 1110.6C574.314 1111.34 573.359 1111.7 572.236 1111.7ZM591.584 1137.42C589.098 1137.42 586.97 1136.93 585.2 1135.94C583.431 1134.95 582.073 1133.56 581.129 1131.79C580.184 1130.01 579.712 1127.95 579.712 1125.61C579.712 1123.26 580.184 1121.2 581.129 1119.43C582.073 1117.65 583.431 1116.27 585.2 1115.28C586.97 1114.29 589.098 1113.79 591.584 1113.79C594.07 1113.79 596.198 1114.29 597.968 1115.28C599.737 1116.27 601.095 1117.65 602.039 1119.43C602.984 1121.2 603.456 1123.26 603.456 1125.61C603.456 1127.95 602.984 1130.01 602.039 1131.79C601.095 1133.56 599.737 1134.95 597.968 1135.94C596.198 1136.93 594.07 1137.42 591.584 1137.42ZM591.644 1131.33C592.34 1131.33 592.941 1131.1 593.448 1130.63C593.955 1130.16 594.348 1129.5 594.627 1128.63C594.905 1127.77 595.044 1126.74 595.044 1125.55C595.044 1124.34 594.905 1123.31 594.627 1122.46C594.348 1121.59 593.955 1120.93 593.448 1120.46C592.941 1119.99 592.34 1119.76 591.644 1119.76C590.908 1119.76 590.276 1119.99 589.749 1120.46C589.222 1120.93 588.82 1121.59 588.541 1122.46C588.263 1123.31 588.124 1124.34 588.124 1125.55C588.124 1126.74 588.263 1127.77 588.541 1128.63C588.82 1129.5 589.222 1130.16 589.749 1130.63C590.276 1131.1 590.908 1131.33 591.644 1131.33ZM615.03 1124.11V1137H606.797V1114.09H614.612V1118.45H614.851C615.348 1116.99 616.223 1115.86 617.476 1115.03C618.739 1114.21 620.21 1113.79 621.891 1113.79C623.512 1113.79 624.919 1114.17 626.112 1114.91C627.315 1115.65 628.244 1116.66 628.901 1117.95C629.567 1119.25 629.895 1120.72 629.885 1122.38V1137H621.652V1124.11C621.662 1122.98 621.374 1122.09 620.787 1121.44C620.21 1120.8 619.405 1120.47 618.371 1120.47C617.695 1120.47 617.103 1120.62 616.596 1120.92C616.099 1121.21 615.716 1121.63 615.448 1122.17C615.179 1122.71 615.04 1123.36 615.03 1124.11ZM654.89 1121.55H647.313C647.273 1121.08 647.109 1120.68 646.821 1120.34C646.532 1120 646.16 1119.74 645.702 1119.56C645.255 1119.38 644.758 1119.28 644.211 1119.28C643.505 1119.28 642.898 1119.41 642.391 1119.67C641.884 1119.93 641.635 1120.3 641.645 1120.77C641.635 1121.11 641.78 1121.42 642.078 1121.71C642.386 1122 642.978 1122.22 643.853 1122.38L648.506 1123.22C650.853 1123.65 652.598 1124.37 653.741 1125.38C654.895 1126.39 655.476 1127.73 655.486 1129.42C655.476 1131.05 654.989 1132.47 654.025 1133.67C653.07 1134.87 651.763 1135.79 650.102 1136.45C648.452 1137.09 646.567 1137.42 644.449 1137.42C640.949 1137.42 638.21 1136.7 636.231 1135.27C634.263 1133.84 633.164 1131.95 632.935 1129.6H641.108C641.218 1130.33 641.576 1130.89 642.182 1131.29C642.799 1131.68 643.574 1131.87 644.509 1131.87C645.265 1131.87 645.886 1131.74 646.373 1131.48C646.871 1131.22 647.124 1130.86 647.134 1130.38C647.124 1129.94 646.905 1129.59 646.478 1129.33C646.06 1129.08 645.404 1128.87 644.509 1128.71L640.452 1127.99C638.116 1127.58 636.366 1126.81 635.202 1125.66C634.039 1124.52 633.462 1123.05 633.472 1121.25C633.462 1119.66 633.88 1118.31 634.725 1117.21C635.58 1116.09 636.798 1115.25 638.379 1114.67C639.97 1114.09 641.854 1113.79 644.032 1113.79C647.343 1113.79 649.953 1114.48 651.862 1115.85C653.781 1117.22 654.79 1119.12 654.89 1121.55Z" fill="#73FFB9"/>
<path d="M42 1154.75V1093.25C42 1090.53 43.0799 1087.92 45.0022 1086C46.9244 1084.08 49.5315 1083 52.25 1083H103.5C104.587 1083 105.63 1083.43 106.399 1084.2C107.168 1084.97 107.6 1086.01 107.6 1087.1V1160.9C107.6 1161.99 107.168 1163.03 106.399 1163.8C105.63 1164.57 104.587 1165 103.5 1165H52.25C49.5315 1165 46.9244 1163.92 45.0022 1162C43.0799 1160.08 42 1157.47 42 1154.75ZM42 1154.75C42 1152.03 43.0799 1149.42 45.0022 1147.5C46.9244 1145.58 49.5315 1144.5 52.25 1144.5H107.6M58.4 1128.1L74.8 1099.4L91.2 1128.1M62.91 1119.9H86.28" stroke="#73FFB9" stroke-width="2.41967" stroke-linecap="square"/>
<path d="M240.045 1365.04H245.248C247.357 1365.04 249.391 1364.25 250.951 1362.83L271.849 1343.83M246.406 1350.2L262.308 1352.32M214.601 1326.87L259.466 1305.42C259.975 1305.17 260.527 1305.03 261.09 1305.01C261.653 1304.98 262.217 1305.06 262.746 1305.26C263.276 1305.45 263.762 1305.74 264.176 1306.13C264.59 1306.51 264.924 1306.97 265.157 1307.48L273.969 1326.87M220.962 1335.35V1326.87M220.962 1352.32V1356.56M220.962 1373.52V1382M212.481 1326.87H280.33C285.014 1326.87 288.811 1330.67 288.811 1335.35V1373.52C288.811 1378.2 285.014 1382 280.33 1382H212.481C207.797 1382 204 1378.2 204 1373.52V1335.35C204 1330.67 207.797 1326.87 212.481 1326.87Z" stroke="#73FFB9" stroke-width="2.29564" stroke-linecap="square"/>
<path d="M56.625 653.584H132.375M69.25 636.75V607.292M86.0833 636.75V607.292M102.917 636.75V607.292M119.75 636.75V607.292M94.5 569.417L128.167 590.459H60.8333L94.5 569.417Z" stroke="#73FFB9" stroke-width="2.48361" stroke-linecap="square"/>
<path d="M196.969 88V57.4545H210.213C212.54 57.4545 214.494 57.7678 216.075 58.3942C217.665 59.0206 218.864 59.9055 219.669 61.049C220.484 62.1925 220.892 63.5398 220.892 65.0909C220.892 66.2145 220.643 67.2386 220.146 68.1634C219.659 69.0881 218.973 69.8636 218.088 70.4901C217.203 71.1065 216.169 71.5341 214.986 71.7727V72.071C216.298 72.1207 217.491 72.4538 218.565 73.0703C219.639 73.6768 220.494 74.517 221.131 75.5909C221.767 76.6548 222.085 77.9077 222.085 79.3494C222.085 81.0199 221.648 82.5064 220.773 83.8089C219.908 85.1115 218.675 86.1357 217.074 86.8814C215.473 87.6271 213.564 88 211.347 88H196.969ZM205.261 81.3778H209.139C210.531 81.3778 211.575 81.1193 212.271 80.6023C212.967 80.0753 213.315 79.2997 213.315 78.2756C213.315 77.5597 213.151 76.9531 212.823 76.456C212.495 75.9588 212.028 75.581 211.421 75.3224C210.825 75.0639 210.104 74.9347 209.259 74.9347H205.261V81.3778ZM205.261 69.804H208.662C209.388 69.804 210.029 69.6896 210.586 69.4609C211.143 69.2322 211.575 68.9041 211.884 68.4766C212.202 68.0391 212.361 67.5071 212.361 66.8807C212.361 65.9361 212.023 65.2152 211.347 64.718C210.67 64.2109 209.815 63.9574 208.781 63.9574H205.261V69.804ZM231.526 88.358C230.065 88.358 228.772 88.1193 227.648 87.642C226.535 87.1548 225.66 86.419 225.023 85.4347C224.387 84.4503 224.069 83.1974 224.069 81.6761C224.069 80.4233 224.283 79.3544 224.71 78.4695C225.138 77.5746 225.734 76.8438 226.5 76.277C227.266 75.7102 228.156 75.2777 229.17 74.9794C230.194 74.6811 231.298 74.4872 232.481 74.3977C233.763 74.2983 234.793 74.179 235.568 74.0398C236.354 73.8906 236.92 73.6868 237.268 73.4283C237.616 73.1598 237.79 72.8068 237.79 72.3693V72.3097C237.79 71.7131 237.562 71.2557 237.104 70.9375C236.647 70.6193 236.06 70.4602 235.344 70.4602C234.559 70.4602 233.918 70.6342 233.42 70.9822C232.933 71.3203 232.64 71.8423 232.54 72.5483H224.964C225.063 71.1562 225.506 69.8736 226.291 68.7003C227.087 67.517 228.245 66.5724 229.766 65.8665C231.288 65.1506 233.187 64.7926 235.464 64.7926C237.104 64.7926 238.576 64.9865 239.879 65.3743C241.181 65.7521 242.29 66.2841 243.205 66.9702C244.119 67.6463 244.815 68.4418 245.293 69.3565C245.78 70.2614 246.023 71.2457 246.023 72.3097V88H238.327V84.7784H238.148C237.691 85.6335 237.134 86.3246 236.478 86.8516C235.832 87.3786 235.091 87.7614 234.256 88C233.43 88.2386 232.521 88.358 231.526 88.358ZM234.211 83.1676C234.837 83.1676 235.424 83.0384 235.971 82.7798C236.528 82.5213 236.98 82.1484 237.328 81.6612C237.676 81.174 237.85 80.5824 237.85 79.8864V77.9773C237.631 78.0668 237.398 78.1513 237.149 78.2308C236.911 78.3104 236.652 78.3849 236.374 78.4545C236.105 78.5241 235.817 78.5888 235.509 78.6484C235.21 78.7081 234.897 78.7628 234.569 78.8125C233.933 78.9119 233.411 79.076 233.003 79.3047C232.605 79.5234 232.307 79.7969 232.108 80.125C231.919 80.4432 231.825 80.8011 231.825 81.1989C231.825 81.8352 232.048 82.3224 232.496 82.6605C232.943 82.9986 233.515 83.1676 234.211 83.1676ZM258.19 75.1136V88H249.957V65.0909H257.773V69.446H258.011C258.508 67.9943 259.383 66.8558 260.636 66.0305C261.899 65.2053 263.371 64.7926 265.051 64.7926C266.672 64.7926 268.079 65.1655 269.272 65.9112C270.475 66.647 271.405 67.6612 272.061 68.9538C272.727 70.2464 273.055 71.723 273.045 73.3835V88H264.812V75.1136C264.822 73.9801 264.534 73.0902 263.947 72.4439C263.371 71.7976 262.565 71.4744 261.531 71.4744C260.855 71.4744 260.263 71.6236 259.756 71.9219C259.259 72.2102 258.876 72.6278 258.608 73.1747C258.339 73.7116 258.2 74.358 258.19 75.1136ZM284.507 82.571L284.567 72.7869H285.641L291.189 65.0909H300.436L291.129 77.0824H288.803L284.507 82.571ZM277.11 88V57.4545H285.343V88H277.11ZM291.249 88L285.999 78.9318L291.368 73.0852L300.675 88H291.249ZM323.521 72.5483H315.944C315.904 72.081 315.74 71.6783 315.452 71.3402C315.163 71.0021 314.79 70.7436 314.333 70.5646C313.886 70.3757 313.388 70.2812 312.842 70.2812C312.136 70.2812 311.529 70.4105 311.022 70.669C310.515 70.9276 310.266 71.2955 310.276 71.7727C310.266 72.1108 310.411 72.424 310.709 72.7124C311.017 73.0007 311.609 73.2244 312.484 73.3835L317.137 74.2188C319.484 74.6463 321.229 75.3672 322.372 76.3814C323.526 77.3857 324.107 78.733 324.117 80.4233C324.107 82.054 323.62 83.4709 322.656 84.674C321.701 85.8672 320.393 86.7919 318.733 87.4482C317.082 88.0945 315.198 88.4176 313.08 88.4176C309.58 88.4176 306.841 87.7017 304.862 86.2699C302.893 84.8381 301.795 82.9489 301.566 80.6023H309.739C309.849 81.3281 310.207 81.8899 310.813 82.2876C311.43 82.6754 312.205 82.8693 313.14 82.8693C313.896 82.8693 314.517 82.7401 315.004 82.4815C315.501 82.223 315.755 81.8551 315.765 81.3778C315.755 80.9403 315.536 80.5923 315.109 80.3338C314.691 80.0753 314.035 79.8665 313.14 79.7074L309.083 78.9915C306.746 78.5838 304.996 77.8082 303.833 76.6648C302.67 75.5213 302.093 74.0497 302.103 72.25C302.093 70.6591 302.511 69.3118 303.356 68.2081C304.211 67.0945 305.429 66.2493 307.01 65.6726C308.601 65.0859 310.485 64.7926 312.663 64.7926C315.974 64.7926 318.584 65.4787 320.493 66.8509C322.412 68.223 323.421 70.1222 323.521 72.5483Z" fill="#73FFB9"/>
<path d="M314.969 358V327.455H328.153C330.42 327.455 332.404 327.902 334.104 328.797C335.805 329.692 337.127 330.95 338.072 332.57C339.016 334.191 339.489 336.085 339.489 338.253C339.489 340.44 339.001 342.335 338.027 343.935C337.063 345.536 335.705 346.769 333.955 347.634C332.215 348.499 330.182 348.932 327.855 348.932H319.98V342.489H326.185C327.159 342.489 327.989 342.32 328.675 341.982C329.371 341.634 329.903 341.141 330.271 340.505C330.649 339.869 330.838 339.118 330.838 338.253C330.838 337.378 330.649 336.632 330.271 336.016C329.903 335.389 329.371 334.912 328.675 334.584C327.989 334.246 327.159 334.077 326.185 334.077H323.261V358H314.969ZM353.195 358.418C350.71 358.418 348.582 357.925 346.812 356.941C345.042 355.947 343.685 354.565 342.74 352.795C341.795 351.015 341.323 348.952 341.323 346.605C341.323 344.259 341.795 342.2 342.74 340.43C343.685 338.651 345.042 337.268 346.812 336.284C348.582 335.29 350.71 334.793 353.195 334.793C355.681 334.793 357.809 335.29 359.579 336.284C361.349 337.268 362.706 338.651 363.651 340.43C364.595 342.2 365.067 344.259 365.067 346.605C365.067 348.952 364.595 351.015 363.651 352.795C362.706 354.565 361.349 355.947 359.579 356.941C357.809 357.925 355.681 358.418 353.195 358.418ZM353.255 352.332C353.951 352.332 354.553 352.099 355.06 351.631C355.567 351.164 355.96 350.498 356.238 349.633C356.516 348.768 356.656 347.739 356.656 346.545C356.656 345.342 356.516 344.313 356.238 343.458C355.96 342.593 355.567 341.927 355.06 341.46C354.553 340.992 353.951 340.759 353.255 340.759C352.519 340.759 351.888 340.992 351.361 341.46C350.834 341.927 350.431 342.593 350.153 343.458C349.874 344.313 349.735 345.342 349.735 346.545C349.735 347.739 349.874 348.768 350.153 349.633C350.431 350.498 350.834 351.164 351.361 351.631C351.888 352.099 352.519 352.332 353.255 352.332ZM389.349 342.548H381.772C381.732 342.081 381.568 341.678 381.28 341.34C380.991 341.002 380.619 340.744 380.161 340.565C379.714 340.376 379.217 340.281 378.67 340.281C377.964 340.281 377.357 340.411 376.85 340.669C376.343 340.928 376.094 341.295 376.104 341.773C376.094 342.111 376.239 342.424 376.537 342.712C376.845 343.001 377.437 343.224 378.312 343.384L382.965 344.219C385.312 344.646 387.057 345.367 388.2 346.381C389.354 347.386 389.935 348.733 389.945 350.423C389.935 352.054 389.448 353.471 388.484 354.674C387.529 355.867 386.222 356.792 384.561 357.448C382.911 358.094 381.026 358.418 378.908 358.418C375.408 358.418 372.669 357.702 370.69 356.27C368.722 354.838 367.623 352.949 367.394 350.602H375.567C375.677 351.328 376.035 351.89 376.641 352.288C377.258 352.675 378.033 352.869 378.968 352.869C379.724 352.869 380.345 352.74 380.832 352.482C381.33 352.223 381.583 351.855 381.593 351.378C381.583 350.94 381.364 350.592 380.937 350.334C380.519 350.075 379.863 349.866 378.968 349.707L374.911 348.991C372.575 348.584 370.825 347.808 369.661 346.665C368.498 345.521 367.921 344.05 367.931 342.25C367.921 340.659 368.339 339.312 369.184 338.208C370.039 337.094 371.257 336.249 372.838 335.673C374.429 335.086 376.313 334.793 378.491 334.793C381.802 334.793 384.412 335.479 386.321 336.851C388.24 338.223 389.249 340.122 389.349 342.548ZM406.762 335.091V341.057H391.668V335.091H406.762ZM394.591 329.602H402.824V350.632C402.824 350.95 402.879 351.219 402.988 351.438C403.098 351.646 403.267 351.805 403.495 351.915C403.724 352.014 404.017 352.064 404.375 352.064C404.624 352.064 404.912 352.034 405.24 351.974C405.578 351.915 405.827 351.865 405.986 351.825L407.179 357.612C406.811 357.722 406.284 357.856 405.598 358.015C404.922 358.174 404.117 358.278 403.182 358.328C401.293 358.428 399.707 358.234 398.424 357.746C397.142 357.249 396.177 356.469 395.531 355.405C394.885 354.341 394.571 353.009 394.591 351.408V329.602ZM416.505 358.358C415.043 358.358 413.751 358.119 412.627 357.642C411.513 357.155 410.638 356.419 410.002 355.435C409.366 354.45 409.047 353.197 409.047 351.676C409.047 350.423 409.261 349.354 409.689 348.469C410.116 347.575 410.713 346.844 411.479 346.277C412.244 345.71 413.134 345.278 414.148 344.979C415.172 344.681 416.276 344.487 417.459 344.398C418.742 344.298 419.771 344.179 420.547 344.04C421.332 343.891 421.899 343.687 422.247 343.428C422.595 343.16 422.769 342.807 422.769 342.369V342.31C422.769 341.713 422.54 341.256 422.083 340.938C421.626 340.619 421.039 340.46 420.323 340.46C419.537 340.46 418.896 340.634 418.399 340.982C417.912 341.32 417.618 341.842 417.519 342.548H409.942C410.042 341.156 410.484 339.874 411.27 338.7C412.065 337.517 413.224 336.572 414.745 335.866C416.266 335.151 418.165 334.793 420.442 334.793C422.083 334.793 423.555 334.987 424.857 335.374C426.16 335.752 427.268 336.284 428.183 336.97C429.098 337.646 429.794 338.442 430.271 339.357C430.758 340.261 431.002 341.246 431.002 342.31V358H423.306V354.778H423.127C422.67 355.634 422.113 356.325 421.456 356.852C420.81 357.379 420.069 357.761 419.234 358C418.409 358.239 417.499 358.358 416.505 358.358ZM419.189 353.168C419.816 353.168 420.403 353.038 420.949 352.78C421.506 352.521 421.959 352.148 422.307 351.661C422.655 351.174 422.829 350.582 422.829 349.886V347.977C422.61 348.067 422.376 348.151 422.128 348.231C421.889 348.31 421.631 348.385 421.352 348.455C421.084 348.524 420.795 348.589 420.487 348.648C420.189 348.708 419.876 348.763 419.547 348.812C418.911 348.912 418.389 349.076 417.981 349.305C417.584 349.523 417.285 349.797 417.086 350.125C416.898 350.443 416.803 350.801 416.803 351.199C416.803 351.835 417.027 352.322 417.474 352.661C417.922 352.999 418.493 353.168 419.189 353.168ZM443.169 327.455V358H434.936V327.455H443.169ZM472.077 337C471.998 336.006 471.625 335.23 470.959 334.673C470.302 334.116 469.303 333.838 467.961 333.838C467.106 333.838 466.405 333.942 465.858 334.151C465.321 334.35 464.923 334.624 464.665 334.972C464.406 335.32 464.272 335.717 464.262 336.165C464.242 336.533 464.307 336.866 464.456 337.164C464.615 337.452 464.863 337.716 465.202 337.955C465.54 338.183 465.972 338.392 466.499 338.581C467.026 338.77 467.653 338.939 468.378 339.088L470.884 339.625C472.574 339.983 474.021 340.455 475.224 341.042C476.427 341.629 477.412 342.32 478.177 343.115C478.943 343.901 479.505 344.786 479.863 345.77C480.231 346.754 480.42 347.828 480.43 348.991C480.42 351 479.917 352.7 478.923 354.092C477.929 355.484 476.507 356.543 474.657 357.269C472.818 357.995 470.606 358.358 468.02 358.358C465.366 358.358 463.049 357.965 461.07 357.18C459.101 356.394 457.57 355.186 456.476 353.555C455.393 351.915 454.846 349.817 454.836 347.261H462.711C462.76 348.196 462.994 348.982 463.412 349.618C463.829 350.254 464.416 350.737 465.172 351.065C465.937 351.393 466.847 351.557 467.901 351.557C468.786 351.557 469.527 351.447 470.123 351.229C470.72 351.01 471.172 350.707 471.481 350.319C471.789 349.931 471.948 349.489 471.958 348.991C471.948 348.524 471.794 348.116 471.496 347.768C471.207 347.411 470.73 347.092 470.064 346.814C469.398 346.526 468.498 346.257 467.364 346.009L464.322 345.352C461.617 344.766 459.484 343.786 457.923 342.414C456.372 341.032 455.601 339.148 455.611 336.761C455.601 334.822 456.118 333.127 457.162 331.675C458.216 330.214 459.673 329.075 461.532 328.26C463.402 327.445 465.545 327.037 467.961 327.037C470.427 327.037 472.559 327.45 474.359 328.275C476.159 329.1 477.546 330.263 478.52 331.765C479.505 333.256 480.002 335.001 480.012 337H472.077ZM494.681 358.418C492.235 358.418 490.127 357.95 488.357 357.016C486.597 356.071 485.24 354.719 484.285 352.959C483.34 351.189 482.868 349.071 482.868 346.605C482.868 344.239 483.345 342.17 484.3 340.401C485.254 338.631 486.602 337.254 488.342 336.269C490.082 335.285 492.135 334.793 494.502 334.793C496.232 334.793 497.798 335.061 499.2 335.598C500.602 336.135 501.8 336.915 502.794 337.94C503.789 338.954 504.554 340.187 505.091 341.638C505.628 343.09 505.896 344.726 505.896 346.545V348.455H485.433V343.92H498.32C498.31 343.264 498.141 342.687 497.813 342.19C497.494 341.683 497.062 341.29 496.515 341.012C495.978 340.724 495.367 340.58 494.681 340.58C494.014 340.58 493.403 340.724 492.846 341.012C492.289 341.29 491.842 341.678 491.504 342.175C491.176 342.673 491.002 343.254 490.982 343.92V348.812C490.982 349.548 491.136 350.205 491.444 350.781C491.752 351.358 492.195 351.81 492.771 352.138C493.348 352.467 494.044 352.631 494.86 352.631C495.426 352.631 495.943 352.551 496.411 352.392C496.888 352.233 497.296 352.004 497.634 351.706C497.972 351.398 498.22 351.03 498.379 350.602H505.896C505.638 352.193 505.026 353.575 504.062 354.749C503.097 355.912 501.82 356.817 500.229 357.463C498.648 358.099 496.798 358.418 494.681 358.418ZM509.256 358V335.091H517.25V339.446H517.489C517.907 337.835 518.568 336.657 519.473 335.911C520.387 335.165 521.456 334.793 522.679 334.793C523.037 334.793 523.39 334.822 523.738 334.882C524.096 334.932 524.439 335.006 524.767 335.106V342.131C524.36 341.991 523.858 341.887 523.261 341.817C522.664 341.748 522.152 341.713 521.725 341.713C520.919 341.713 520.194 341.897 519.547 342.265C518.911 342.623 518.409 343.13 518.041 343.786C517.673 344.433 517.489 345.193 517.489 346.068V358H509.256ZM551.252 335.091L543.556 358H534.011L526.315 335.091H534.965L538.664 350.244H538.903L542.602 335.091H551.252ZM553.594 358V335.091H561.827V358H553.594ZM557.71 332.705C556.597 332.705 555.642 332.337 554.847 331.601C554.051 330.865 553.654 329.98 553.654 328.946C553.654 327.912 554.051 327.027 554.847 326.291C555.642 325.555 556.597 325.188 557.71 325.188C558.834 325.188 559.789 325.555 560.574 326.291C561.369 327.027 561.767 327.912 561.767 328.946C561.767 329.98 561.369 330.865 560.574 331.601C559.789 332.337 558.834 332.705 557.71 332.705ZM577.059 358.418C574.573 358.418 572.445 357.925 570.675 356.941C568.905 355.947 567.548 354.565 566.603 352.795C565.659 351.015 565.186 348.952 565.186 346.605C565.186 344.259 565.659 342.2 566.603 340.43C567.548 338.651 568.905 337.268 570.675 336.284C572.445 335.29 574.573 334.793 577.059 334.793C579.306 334.793 581.25 335.2 582.89 336.016C584.541 336.821 585.819 337.964 586.723 339.446C587.628 340.918 588.086 342.648 588.096 344.636H580.459C580.35 343.433 580.002 342.518 579.415 341.892C578.838 341.256 578.093 340.938 577.178 340.938C576.462 340.938 575.836 341.146 575.299 341.564C574.762 341.972 574.344 342.593 574.046 343.428C573.748 344.254 573.598 345.293 573.598 346.545C573.598 347.798 573.748 348.842 574.046 349.678C574.344 350.503 574.762 351.124 575.299 351.542C575.836 351.95 576.462 352.153 577.178 352.153C577.784 352.153 578.321 352.014 578.789 351.736C579.256 351.447 579.634 351.03 579.922 350.483C580.221 349.926 580.4 349.25 580.459 348.455H588.096C588.066 350.473 587.603 352.233 586.708 353.734C585.814 355.226 584.546 356.379 582.905 357.195C581.275 358.01 579.326 358.418 577.059 358.418ZM602.47 358.418C600.024 358.418 597.916 357.95 596.146 357.016C594.386 356.071 593.029 354.719 592.074 352.959C591.129 351.189 590.657 349.071 590.657 346.605C590.657 344.239 591.134 342.17 592.089 340.401C593.044 338.631 594.391 337.254 596.131 336.269C597.871 335.285 599.924 334.793 602.291 334.793C604.021 334.793 605.587 335.061 606.989 335.598C608.391 336.135 609.589 336.915 610.583 337.94C611.578 338.954 612.343 340.187 612.88 341.638C613.417 343.09 613.686 344.726 613.686 346.545V348.455H593.222V343.92H606.109C606.099 343.264 605.93 342.687 605.602 342.19C605.284 341.683 604.851 341.29 604.304 341.012C603.767 340.724 603.156 340.58 602.47 340.58C601.803 340.58 601.192 340.724 600.635 341.012C600.078 341.29 599.631 341.678 599.293 342.175C598.965 342.673 598.791 343.254 598.771 343.92V348.812C598.771 349.548 598.925 350.205 599.233 350.781C599.541 351.358 599.984 351.81 600.561 352.138C601.137 352.467 601.833 352.631 602.649 352.631C603.215 352.631 603.732 352.551 604.2 352.392C604.677 352.233 605.085 352.004 605.423 351.706C605.761 351.398 606.009 351.03 606.169 350.602H613.686C613.427 352.193 612.816 353.575 611.851 354.749C610.887 355.912 609.609 356.817 608.018 357.463C606.437 358.099 604.588 358.418 602.47 358.418ZM637.985 342.548H630.409C630.369 342.081 630.205 341.678 629.917 341.34C629.628 341.002 629.255 340.744 628.798 340.565C628.35 340.376 627.853 340.281 627.306 340.281C626.6 340.281 625.994 340.411 625.487 340.669C624.98 340.928 624.731 341.295 624.741 341.773C624.731 342.111 624.875 342.424 625.174 342.712C625.482 343.001 626.074 343.224 626.949 343.384L631.602 344.219C633.949 344.646 635.694 345.367 636.837 346.381C637.99 347.386 638.572 348.733 638.582 350.423C638.572 352.054 638.085 353.471 637.12 354.674C636.166 355.867 634.858 356.792 633.198 357.448C631.547 358.094 629.663 358.418 627.545 358.418C624.045 358.418 621.306 357.702 619.327 356.27C617.358 354.838 616.26 352.949 616.031 350.602H624.204C624.314 351.328 624.672 351.89 625.278 352.288C625.895 352.675 626.67 352.869 627.605 352.869C628.36 352.869 628.982 352.74 629.469 352.482C629.966 352.223 630.22 351.855 630.23 351.378C630.22 350.94 630.001 350.592 629.574 350.334C629.156 350.075 628.5 349.866 627.605 349.707L623.548 348.991C621.211 348.584 619.461 347.808 618.298 346.665C617.135 345.521 616.558 344.05 616.568 342.25C616.558 340.659 616.975 339.312 617.821 338.208C618.676 337.094 619.894 336.249 621.475 335.673C623.066 335.086 624.95 334.793 627.127 334.793C630.439 334.793 633.049 335.479 634.958 336.851C636.877 338.223 637.886 340.122 637.985 342.548Z" fill="#73FFB9"/>
<path d="M386.486 880.909H378.074C378.014 880.213 377.855 879.582 377.597 879.015C377.348 878.448 377 877.961 376.553 877.553C376.115 877.136 375.583 876.817 374.957 876.599C374.33 876.37 373.619 876.256 372.824 876.256C371.432 876.256 370.254 876.594 369.289 877.27C368.335 877.946 367.609 878.915 367.112 880.178C366.624 881.441 366.381 882.957 366.381 884.727C366.381 886.597 366.629 888.163 367.126 889.425C367.634 890.678 368.364 891.623 369.319 892.259C370.273 892.886 371.422 893.199 372.764 893.199C373.53 893.199 374.216 893.104 374.822 892.915C375.429 892.717 375.956 892.433 376.403 892.065C376.851 891.697 377.214 891.255 377.492 890.738C377.781 890.211 377.974 889.619 378.074 888.963L386.486 889.023C386.386 890.315 386.023 891.633 385.397 892.975C384.771 894.308 383.881 895.54 382.727 896.674C381.584 897.798 380.167 898.702 378.477 899.388C376.786 900.075 374.822 900.418 372.585 900.418C369.781 900.418 367.266 899.816 365.038 898.613C362.821 897.41 361.066 895.64 359.773 893.303C358.491 890.967 357.849 888.108 357.849 884.727C357.849 881.327 358.506 878.463 359.818 876.136C361.131 873.8 362.901 872.035 365.128 870.842C367.355 869.638 369.841 869.037 372.585 869.037C374.514 869.037 376.289 869.3 377.91 869.827C379.531 870.354 380.952 871.125 382.175 872.139C383.398 873.143 384.383 874.381 385.129 875.853C385.874 877.325 386.327 879.01 386.486 880.909ZM401.404 900.418C398.919 900.418 396.791 899.925 395.021 898.941C393.251 897.947 391.894 896.565 390.949 894.795C390.004 893.015 389.532 890.952 389.532 888.605C389.532 886.259 390.004 884.2 390.949 882.43C391.894 880.651 393.251 879.268 395.021 878.284C396.791 877.29 398.919 876.793 401.404 876.793C403.89 876.793 406.018 877.29 407.788 878.284C409.558 879.268 410.915 880.651 411.86 882.43C412.804 884.2 413.276 886.259 413.276 888.605C413.276 890.952 412.804 893.015 411.86 894.795C410.915 896.565 409.558 897.947 407.788 898.941C406.018 899.925 403.89 900.418 401.404 900.418ZM401.464 894.332C402.16 894.332 402.762 894.099 403.269 893.631C403.776 893.164 404.169 892.498 404.447 891.633C404.725 890.768 404.865 889.739 404.865 888.545C404.865 887.342 404.725 886.313 404.447 885.458C404.169 884.593 403.776 883.927 403.269 883.46C402.762 882.992 402.16 882.759 401.464 882.759C400.728 882.759 400.097 882.992 399.57 883.46C399.043 883.927 398.64 884.593 398.362 885.458C398.083 886.313 397.944 887.342 397.944 888.545C397.944 889.739 398.083 890.768 398.362 891.633C398.64 892.498 399.043 893.164 399.57 893.631C400.097 894.099 400.728 894.332 401.464 894.332ZM431.472 889.977V877.091H439.705V900H431.89V895.645H431.651C431.154 897.107 430.284 898.25 429.041 899.075C427.798 899.891 426.322 900.298 424.612 900.298C423.011 900.298 421.609 899.93 420.406 899.195C419.213 898.459 418.283 897.445 417.617 896.152C416.96 894.859 416.627 893.378 416.617 891.707V877.091H424.85V889.977C424.86 891.111 425.149 892.001 425.715 892.647C426.292 893.293 427.097 893.616 428.132 893.616C428.818 893.616 429.409 893.472 429.906 893.184C430.414 892.886 430.801 892.468 431.07 891.931C431.348 891.384 431.482 890.733 431.472 889.977ZM443.893 900V877.091H451.887V881.446H452.126C452.543 879.835 453.205 878.657 454.109 877.911C455.024 877.165 456.093 876.793 457.316 876.793C457.674 876.793 458.027 876.822 458.375 876.882C458.733 876.932 459.076 877.006 459.404 877.106V884.131C458.996 883.991 458.494 883.887 457.898 883.817C457.301 883.748 456.789 883.713 456.362 883.713C455.556 883.713 454.83 883.897 454.184 884.265C453.548 884.623 453.045 885.13 452.678 885.786C452.31 886.433 452.126 887.193 452.126 888.068V900H443.893ZM476.709 877.091V883.057H461.615V877.091H476.709ZM464.539 871.602H472.771V892.632C472.771 892.95 472.826 893.219 472.936 893.438C473.045 893.646 473.214 893.805 473.443 893.915C473.671 894.014 473.965 894.064 474.323 894.064C474.571 894.064 474.86 894.034 475.188 893.974C475.526 893.915 475.774 893.865 475.933 893.825L477.127 899.612C476.759 899.722 476.232 899.856 475.546 900.015C474.869 900.174 474.064 900.278 473.129 900.328C471.24 900.428 469.654 900.234 468.372 899.746C467.089 899.249 466.124 898.469 465.478 897.405C464.832 896.341 464.519 895.009 464.539 893.408V871.602ZM500.763 884.548H493.186C493.146 884.081 492.982 883.678 492.694 883.34C492.406 883.002 492.033 882.744 491.575 882.565C491.128 882.376 490.631 882.281 490.084 882.281C489.378 882.281 488.771 882.411 488.264 882.669C487.757 882.928 487.509 883.295 487.518 883.773C487.509 884.111 487.653 884.424 487.951 884.712C488.259 885.001 488.851 885.224 489.726 885.384L494.379 886.219C496.726 886.646 498.471 887.367 499.614 888.381C500.768 889.386 501.349 890.733 501.359 892.423C501.349 894.054 500.862 895.471 499.898 896.674C498.943 897.867 497.636 898.792 495.975 899.448C494.325 900.094 492.44 900.418 490.322 900.418C486.822 900.418 484.083 899.702 482.104 898.27C480.136 896.838 479.037 894.949 478.808 892.602H486.982C487.091 893.328 487.449 893.89 488.055 894.288C488.672 894.675 489.447 894.869 490.382 894.869C491.138 894.869 491.759 894.74 492.246 894.482C492.744 894.223 492.997 893.855 493.007 893.378C492.997 892.94 492.778 892.592 492.351 892.334C491.933 892.075 491.277 891.866 490.382 891.707L486.325 890.991C483.989 890.584 482.239 889.808 481.075 888.665C479.912 887.521 479.335 886.05 479.345 884.25C479.335 882.659 479.753 881.312 480.598 880.208C481.453 879.094 482.671 878.249 484.252 877.673C485.843 877.086 487.727 876.793 489.905 876.793C493.216 876.793 495.826 877.479 497.735 878.851C499.654 880.223 500.663 882.122 500.763 884.548Z" fill="#73FFB9"/>
<path d="M228.805 607.537C228.676 607.01 228.472 606.548 228.194 606.15C227.915 605.742 227.567 605.399 227.15 605.121C226.742 604.832 226.265 604.619 225.718 604.479C225.181 604.33 224.589 604.256 223.943 604.256C222.551 604.256 221.363 604.589 220.379 605.255C219.404 605.921 218.658 606.881 218.141 608.134C217.634 609.386 217.381 610.898 217.381 612.668C217.381 614.457 217.624 615.989 218.112 617.261C218.599 618.534 219.325 619.509 220.289 620.185C221.254 620.861 222.452 621.199 223.884 621.199C225.146 621.199 226.195 621.015 227.031 620.647C227.876 620.279 228.507 619.757 228.925 619.081C229.342 618.405 229.551 617.609 229.551 616.695L230.983 616.844H224.003V610.938H237.545V615.173C237.545 617.957 236.954 620.339 235.771 622.317C234.597 624.286 232.977 625.798 230.908 626.852C228.85 627.896 226.489 628.418 223.824 628.418C220.851 628.418 218.241 627.786 215.994 626.523C213.746 625.261 211.991 623.461 210.729 621.124C209.476 618.788 208.849 616.009 208.849 612.787C208.849 610.261 209.232 608.024 209.998 606.075C210.773 604.126 211.847 602.481 213.219 601.138C214.592 599.786 216.178 598.767 217.977 598.081C219.777 597.385 221.706 597.037 223.764 597.037C225.574 597.037 227.254 597.295 228.805 597.812C230.366 598.32 231.744 599.045 232.937 599.99C234.14 600.925 235.109 602.033 235.845 603.316C236.581 604.599 237.028 606.006 237.188 607.537H228.805ZM252.568 628.418C250.083 628.418 247.955 627.925 246.185 626.941C244.415 625.947 243.058 624.565 242.113 622.795C241.169 621.015 240.696 618.952 240.696 616.605C240.696 614.259 241.169 612.2 242.113 610.43C243.058 608.651 244.415 607.268 246.185 606.284C247.955 605.29 250.083 604.793 252.568 604.793C255.054 604.793 257.182 605.29 258.952 606.284C260.722 607.268 262.079 608.651 263.024 610.43C263.968 612.2 264.441 614.259 264.441 616.605C264.441 618.952 263.968 621.015 263.024 622.795C262.079 624.565 260.722 625.947 258.952 626.941C257.182 627.925 255.054 628.418 252.568 628.418ZM252.628 622.332C253.324 622.332 253.926 622.099 254.433 621.631C254.94 621.164 255.333 620.498 255.611 619.633C255.889 618.768 256.029 617.739 256.029 616.545C256.029 615.342 255.889 614.313 255.611 613.458C255.333 612.593 254.94 611.927 254.433 611.46C253.926 610.992 253.324 610.759 252.628 610.759C251.892 610.759 251.261 610.992 250.734 611.46C250.207 611.927 249.804 612.593 249.526 613.458C249.247 614.313 249.108 615.342 249.108 616.545C249.108 617.739 249.247 618.768 249.526 619.633C249.804 620.498 250.207 621.164 250.734 621.631C251.261 622.099 251.892 622.332 252.628 622.332ZM290.172 605.091L282.476 628H272.931L265.235 605.091H273.885L277.584 620.244H277.823L281.522 605.091H290.172ZM302.794 628.418C300.348 628.418 298.24 627.95 296.47 627.016C294.71 626.071 293.353 624.719 292.398 622.959C291.454 621.189 290.981 619.071 290.981 616.605C290.981 614.239 291.459 612.17 292.413 610.401C293.368 608.631 294.715 607.254 296.455 606.269C298.195 605.285 300.248 604.793 302.615 604.793C304.345 604.793 305.911 605.061 307.313 605.598C308.715 606.135 309.913 606.915 310.907 607.94C311.902 608.954 312.667 610.187 313.204 611.638C313.741 613.09 314.01 614.726 314.01 616.545V618.455H293.547V613.92H306.433C306.423 613.264 306.254 612.687 305.926 612.19C305.608 611.683 305.175 611.29 304.628 611.012C304.091 610.724 303.48 610.58 302.794 610.58C302.128 610.58 301.516 610.724 300.959 611.012C300.403 611.29 299.955 611.678 299.617 612.175C299.289 612.673 299.115 613.254 299.095 613.92V618.812C299.095 619.548 299.249 620.205 299.557 620.781C299.866 621.358 300.308 621.81 300.885 622.138C301.461 622.467 302.157 622.631 302.973 622.631C303.54 622.631 304.057 622.551 304.524 622.392C305.001 622.233 305.409 622.004 305.747 621.706C306.085 621.398 306.334 621.03 306.493 620.602H314.01C313.751 622.193 313.14 623.575 312.175 624.749C311.211 625.912 309.933 626.817 308.342 627.463C306.761 628.099 304.912 628.418 302.794 628.418ZM317.369 628V605.091H325.364V609.446H325.602C326.02 607.835 326.681 606.657 327.586 605.911C328.501 605.165 329.57 604.793 330.793 604.793C331.151 604.793 331.504 604.822 331.852 604.882C332.21 604.932 332.553 605.006 332.881 605.106V612.131C332.473 611.991 331.971 611.887 331.374 611.817C330.778 611.748 330.266 611.713 329.838 611.713C329.033 611.713 328.307 611.897 327.661 612.265C327.024 612.623 326.522 613.13 326.154 613.786C325.786 614.433 325.602 615.193 325.602 616.068V628H317.369ZM343.813 615.114V628H335.58V605.091H343.396V609.446H343.634C344.131 607.994 345.006 606.856 346.259 606.031C347.522 605.205 348.994 604.793 350.674 604.793C352.295 604.793 353.702 605.165 354.895 605.911C356.098 606.647 357.028 607.661 357.684 608.954C358.35 610.246 358.678 611.723 358.668 613.384V628H350.435V615.114C350.445 613.98 350.157 613.09 349.57 612.444C348.994 611.798 348.188 611.474 347.154 611.474C346.478 611.474 345.886 611.624 345.379 611.922C344.882 612.21 344.499 612.628 344.231 613.175C343.962 613.712 343.823 614.358 343.813 615.114ZM362.733 628V605.091H370.548V609.446H370.787C371.264 608.014 372.079 606.881 373.233 606.045C374.386 605.21 375.758 604.793 377.349 604.793C378.96 604.793 380.347 605.22 381.51 606.075C382.674 606.92 383.375 608.044 383.613 609.446H383.852C384.24 608.044 385.065 606.92 386.328 606.075C387.591 605.22 389.072 604.793 390.772 604.793C392.97 604.793 394.75 605.499 396.112 606.911C397.484 608.322 398.17 610.202 398.17 612.548V628H389.937V614.636C389.937 613.632 389.684 612.847 389.176 612.28C388.669 611.703 387.988 611.415 387.133 611.415C386.288 611.415 385.617 611.703 385.12 612.28C384.632 612.847 384.389 613.632 384.389 614.636V628H376.514V614.636C376.514 613.632 376.26 612.847 375.753 612.28C375.246 611.703 374.565 611.415 373.71 611.415C373.143 611.415 372.656 611.544 372.248 611.803C371.841 612.061 371.522 612.434 371.294 612.921C371.075 613.398 370.966 613.97 370.966 614.636V628H362.733ZM413.208 628.418C410.762 628.418 408.654 627.95 406.884 627.016C405.124 626.071 403.767 624.719 402.812 622.959C401.868 621.189 401.395 619.071 401.395 616.605C401.395 614.239 401.873 612.17 402.827 610.401C403.782 608.631 405.129 607.254 406.869 606.269C408.609 605.285 410.662 604.793 413.029 604.793C414.759 604.793 416.325 605.061 417.727 605.598C419.129 606.135 420.327 606.915 421.322 607.94C422.316 608.954 423.081 610.187 423.618 611.638C424.155 613.09 424.424 614.726 424.424 616.545V618.455H403.961V613.92H416.847C416.837 613.264 416.668 612.687 416.34 612.19C416.022 611.683 415.589 611.29 415.042 611.012C414.506 610.724 413.894 610.58 413.208 610.58C412.542 610.58 411.93 610.724 411.373 611.012C410.817 611.29 410.369 611.678 410.031 612.175C409.703 612.673 409.529 613.254 409.509 613.92V618.812C409.509 619.548 409.663 620.205 409.971 620.781C410.28 621.358 410.722 621.81 411.299 622.138C411.876 622.467 412.572 622.631 413.387 622.631C413.954 622.631 414.471 622.551 414.938 622.392C415.415 622.233 415.823 622.004 416.161 621.706C416.499 621.398 416.748 621.03 416.907 620.602H424.424C424.165 622.193 423.554 623.575 422.589 624.749C421.625 625.912 420.347 626.817 418.756 627.463C417.175 628.099 415.326 628.418 413.208 628.418ZM436.016 615.114V628H427.783V605.091H435.599V609.446H435.837C436.335 607.994 437.21 606.856 438.462 606.031C439.725 605.205 441.197 604.793 442.877 604.793C444.498 604.793 445.905 605.165 447.098 605.911C448.301 606.647 449.231 607.661 449.887 608.954C450.553 610.246 450.881 611.723 450.871 613.384V628H442.638V615.114C442.648 613.98 442.36 613.09 441.773 612.444C441.197 611.798 440.391 611.474 439.357 611.474C438.681 611.474 438.089 611.624 437.582 611.922C437.085 612.21 436.702 612.628 436.434 613.175C436.165 613.712 436.026 614.358 436.016 615.114ZM468.598 605.091V611.057H453.504V605.091H468.598ZM456.427 599.602H464.66V620.632C464.66 620.95 464.715 621.219 464.824 621.438C464.934 621.646 465.103 621.805 465.331 621.915C465.56 622.014 465.853 622.064 466.211 622.064C466.46 622.064 466.748 622.034 467.076 621.974C467.414 621.915 467.663 621.865 467.822 621.825L469.015 627.612C468.647 627.722 468.12 627.856 467.434 628.015C466.758 628.174 465.953 628.278 465.018 628.328C463.129 628.428 461.543 628.234 460.26 627.746C458.978 627.249 458.013 626.469 457.367 625.405C456.721 624.341 456.407 623.009 456.427 621.408V599.602ZM509.796 612.727C509.796 616.128 509.135 618.996 507.812 621.333C506.49 623.66 504.705 625.425 502.458 626.628C500.211 627.821 497.705 628.418 494.941 628.418C492.157 628.418 489.641 627.816 487.394 626.613C485.157 625.4 483.377 623.63 482.055 621.303C480.742 618.967 480.086 616.108 480.086 612.727C480.086 609.327 480.742 606.463 482.055 604.136C483.377 601.8 485.157 600.035 487.394 598.842C489.641 597.638 492.157 597.037 494.941 597.037C497.705 597.037 500.211 597.638 502.458 598.842C504.705 600.035 506.49 601.8 507.812 604.136C509.135 606.463 509.796 609.327 509.796 612.727ZM501.265 612.727C501.265 610.898 501.021 609.357 500.534 608.104C500.057 606.841 499.346 605.886 498.401 605.24C497.466 604.584 496.313 604.256 494.941 604.256C493.569 604.256 492.41 604.584 491.466 605.24C490.531 605.886 489.82 606.841 489.333 608.104C488.856 609.357 488.617 610.898 488.617 612.727C488.617 614.557 488.856 616.103 489.333 617.366C489.82 618.619 490.531 619.573 491.466 620.229C492.41 620.876 493.569 621.199 494.941 621.199C496.313 621.199 497.466 620.876 498.401 620.229C499.346 619.573 500.057 618.619 500.534 617.366C501.021 616.103 501.265 614.557 501.265 612.727ZM527.474 605.091V611.057H512.141V605.091H527.474ZM515.065 628V604.435C515.065 602.545 515.403 600.979 516.079 599.737C516.755 598.494 517.71 597.564 518.942 596.947C520.175 596.331 521.627 596.023 523.298 596.023C524.342 596.023 525.356 596.102 526.34 596.261C527.335 596.42 528.07 596.56 528.548 596.679L527.354 602.585C527.056 602.496 526.708 602.426 526.31 602.376C525.913 602.317 525.565 602.287 525.266 602.287C524.491 602.287 523.969 602.451 523.7 602.779C523.432 603.107 523.298 603.54 523.298 604.077V628H515.065ZM544.372 605.091V611.057H529.04V605.091H544.372ZM531.963 628V604.435C531.963 602.545 532.301 600.979 532.977 599.737C533.653 598.494 534.608 597.564 535.841 596.947C537.074 596.331 538.526 596.023 540.196 596.023C541.24 596.023 542.254 596.102 543.239 596.261C544.233 596.42 544.969 596.56 545.446 596.679L544.253 602.585C543.955 602.496 543.607 602.426 543.209 602.376C542.811 602.317 542.463 602.287 542.165 602.287C541.389 602.287 540.867 602.451 540.599 602.779C540.33 603.107 540.196 603.54 540.196 604.077V628H531.963ZM547.549 628V605.091H555.782V628H547.549ZM551.665 602.705C550.552 602.705 549.597 602.337 548.802 601.601C548.006 600.865 547.609 599.98 547.609 598.946C547.609 597.912 548.006 597.027 548.802 596.291C549.597 595.555 550.552 595.188 551.665 595.188C552.789 595.188 553.744 595.555 554.529 596.291C555.325 597.027 555.722 597.912 555.722 598.946C555.722 599.98 555.325 600.865 554.529 601.601C553.744 602.337 552.789 602.705 551.665 602.705ZM571.014 628.418C568.528 628.418 566.4 627.925 564.63 626.941C562.86 625.947 561.503 624.565 560.558 622.795C559.614 621.015 559.142 618.952 559.142 616.605C559.142 614.259 559.614 612.2 560.558 610.43C561.503 608.651 562.86 607.268 564.63 606.284C566.4 605.29 568.528 604.793 571.014 604.793C573.261 604.793 575.205 605.2 576.845 606.016C578.496 606.821 579.774 607.964 580.678 609.446C581.583 610.918 582.041 612.648 582.051 614.636H574.414C574.305 613.433 573.957 612.518 573.37 611.892C572.794 611.256 572.048 610.938 571.133 610.938C570.417 610.938 569.791 611.146 569.254 611.564C568.717 611.972 568.299 612.593 568.001 613.428C567.703 614.254 567.553 615.293 567.553 616.545C567.553 617.798 567.703 618.842 568.001 619.678C568.299 620.503 568.717 621.124 569.254 621.542C569.791 621.95 570.417 622.153 571.133 622.153C571.74 622.153 572.276 622.014 572.744 621.736C573.211 621.447 573.589 621.03 573.877 620.483C574.176 619.926 574.355 619.25 574.414 618.455H582.051C582.021 620.473 581.558 622.233 580.664 623.734C579.769 625.226 578.501 626.379 576.86 627.195C575.23 628.01 573.281 628.418 571.014 628.418ZM596.425 628.418C593.979 628.418 591.871 627.95 590.101 627.016C588.341 626.071 586.984 624.719 586.029 622.959C585.085 621.189 584.612 619.071 584.612 616.605C584.612 614.239 585.089 612.17 586.044 610.401C586.999 608.631 588.346 607.254 590.086 606.269C591.826 605.285 593.879 604.793 596.246 604.793C597.976 604.793 599.542 605.061 600.944 605.598C602.346 606.135 603.544 606.915 604.538 607.94C605.533 608.954 606.298 610.187 606.835 611.638C607.372 613.09 607.641 614.726 607.641 616.545V618.455H587.178V613.92H600.064C600.054 613.264 599.885 612.687 599.557 612.19C599.239 611.683 598.806 611.29 598.259 611.012C597.722 610.724 597.111 610.58 596.425 610.58C595.759 610.58 595.147 610.724 594.59 611.012C594.033 611.29 593.586 611.678 593.248 612.175C592.92 612.673 592.746 613.254 592.726 613.92V618.812C592.726 619.548 592.88 620.205 593.188 620.781C593.496 621.358 593.939 621.81 594.516 622.138C595.092 622.467 595.788 622.631 596.604 622.631C597.17 622.631 597.688 622.551 598.155 622.392C598.632 622.233 599.04 622.004 599.378 621.706C599.716 621.398 599.964 621.03 600.124 620.602H607.641C607.382 622.193 606.771 623.575 605.806 624.749C604.842 625.912 603.564 626.817 601.973 627.463C600.392 628.099 598.543 628.418 596.425 628.418ZM631.941 612.548H624.364C624.324 612.081 624.16 611.678 623.872 611.34C623.583 611.002 623.21 610.744 622.753 610.565C622.306 610.376 621.808 610.281 621.262 610.281C620.556 610.281 619.949 610.411 619.442 610.669C618.935 610.928 618.686 611.295 618.696 611.773C618.686 612.111 618.83 612.424 619.129 612.712C619.437 613.001 620.029 613.224 620.904 613.384L625.557 614.219C627.904 614.646 629.649 615.367 630.792 616.381C631.945 617.386 632.527 618.733 632.537 620.423C632.527 622.054 632.04 623.471 631.075 624.674C630.121 625.867 628.813 626.792 627.153 627.448C625.502 628.094 623.618 628.418 621.5 628.418C618 628.418 615.261 627.702 613.282 626.27C611.313 624.838 610.215 622.949 609.986 620.602H618.159C618.269 621.328 618.627 621.89 619.233 622.288C619.85 622.675 620.625 622.869 621.56 622.869C622.316 622.869 622.937 622.74 623.424 622.482C623.921 622.223 624.175 621.855 624.185 621.378C624.175 620.94 623.956 620.592 623.529 620.334C623.111 620.075 622.455 619.866 621.56 619.707L617.503 618.991C615.166 618.584 613.416 617.808 612.253 616.665C611.09 615.521 610.513 614.05 610.523 612.25C610.513 610.659 610.931 609.312 611.776 608.208C612.631 607.094 613.849 606.249 615.43 605.673C617.021 605.086 618.905 604.793 621.083 604.793C624.394 604.793 627.004 605.479 628.913 606.851C630.832 608.223 631.841 610.122 631.941 612.548Z" fill="#73FFB9"/>
<circle cx="75" cy="75" r="74" stroke="#73FFB9" stroke-width="2"/>
<circle cx="194" cy="346" r="74" stroke="#73FFB9" stroke-width="2"/>
<circle cx="94" cy="617" r="74" stroke="#73FFB9" stroke-width="2"/>
<circle cx="225" cy="888" r="74" stroke="#73FFB9" stroke-width="2"/>
<line x1="105.928" y1="143.627" x2="160.928" y2="280.627" stroke="#73FFB9" stroke-width="2"/>
<line x1="105.928" y1="143.627" x2="160.928" y2="280.627" stroke="#73FFB9" stroke-width="2"/>
<line x1="105.928" y1="143.627" x2="160.928" y2="280.627" stroke="#73FFB9" stroke-width="2"/>
<line x1="105.928" y1="143.627" x2="160.928" y2="280.627" stroke="#73FFB9" stroke-width="2"/>
<line x1="182.912" y1="421.41" x2="124.912" y2="550.41" stroke="#73FFB9" stroke-width="2"/>
<line x1="182.912" y1="421.41" x2="124.912" y2="550.41" stroke="#73FFB9" stroke-width="2"/>
<line x1="182.912" y1="421.41" x2="124.912" y2="550.41" stroke="#73FFB9" stroke-width="2"/>
<line x1="182.912" y1="421.41" x2="124.912" y2="550.41" stroke="#73FFB9" stroke-width="2"/>
<line x1="124.888" y1="683.54" x2="194.888" y2="818.54" stroke="#73FFB9" stroke-width="2"/>
<line x1="124.888" y1="683.54" x2="194.888" y2="818.54" stroke="#73FFB9" stroke-width="2"/>
<line x1="124.888" y1="683.54" x2="194.888" y2="818.54" stroke="#73FFB9" stroke-width="2"/>
<line x1="124.888" y1="683.54" x2="194.888" y2="818.54" stroke="#73FFB9" stroke-width="2"/>
<path d="M153.923 316.75H235.032L194.091 354.215L153.923 316.75ZM237 318.338V375.5H152V318.375L193.231 356.831C193.708 357.276 194.446 357.279 194.927 356.839L237 318.338Z" stroke="#73FFB9" stroke-width="2.5" stroke-linecap="square" stroke-linejoin="round"/>
<circle cx="75" cy="1124" r="74" stroke="#73FFB9" stroke-width="2"/>
<circle cx="246" cy="1344" r="74" stroke="#73FFB9" stroke-width="2"/>
<line x1="194.805" y1="955.593" x2="116.805" y2="1061.59" stroke="#73FFB9" stroke-width="2"/>
<line x1="194.805" y1="955.593" x2="116.805" y2="1061.59" stroke="#73FFB9" stroke-width="2"/>
<line x1="194.805" y1="955.593" x2="116.805" y2="1061.59" stroke="#73FFB9" stroke-width="2"/>
<line x1="194.805" y1="955.593" x2="116.805" y2="1061.59" stroke="#73FFB9" stroke-width="2"/>
<line x1="192.937" y1="1291.47" x2="127.134" y2="1177.5" stroke="#73FFB9" stroke-width="2"/>
<line x1="192.937" y1="1291.47" x2="127.134" y2="1177.5" stroke="#73FFB9" stroke-width="2"/>
<line x1="192.937" y1="1291.47" x2="127.134" y2="1177.5" stroke="#73FFB9" stroke-width="2"/>
<line x1="192.937" y1="1291.47" x2="127.134" y2="1177.5" stroke="#73FFB9" stroke-width="2"/>
<path d="M72.793 124.913V35.7834H76.1702V124.913H72.793ZM92.7427 62.5222C92.3714 58.089 90.5609 54.5029 87.3114 51.764C84.0851 49.0251 79.9072 47.6557 74.7776 47.6557C71.3191 47.6557 68.2437 48.294 65.5513 49.5706C62.8588 50.8472 60.7466 52.588 59.2147 54.793C57.6828 56.9981 56.9168 59.528 56.9168 62.383C56.9168 64.2166 57.265 65.8762 57.9613 67.3617C58.6809 68.824 59.6905 70.1354 60.9903 71.2959C62.2901 72.4333 63.8337 73.4313 65.6209 74.2901C67.4081 75.1489 69.381 75.9033 71.5397 76.5532L79.3385 78.8511C82.0077 79.6634 84.4681 80.6035 86.7195 81.6712C88.9942 82.7389 90.9671 84.0155 92.6383 85.501C94.3327 86.9632 95.6441 88.6809 96.5725 90.6538C97.5242 92.6267 98 94.9014 98 97.4778C98 101.238 97.0251 104.603 95.0754 107.574C93.1489 110.545 90.3985 112.89 86.824 114.607C83.2727 116.302 79.0832 117.149 74.2553 117.149C69.6596 117.149 65.6557 116.371 62.2437 114.816C58.8549 113.261 56.1741 111.103 54.2012 108.34C52.2282 105.555 51.1141 102.352 50.8588 98.7311H55.3153C55.5474 101.679 56.4874 104.232 58.1354 106.391C59.8066 108.526 62.0232 110.174 64.7853 111.335C67.5474 112.495 70.7041 113.075 74.2553 113.075C78.0851 113.075 81.4623 112.426 84.3868 111.126C87.3114 109.803 89.5977 107.969 91.2456 105.625C92.8936 103.28 93.7176 100.553 93.7176 97.4429C93.7176 94.9362 93.1257 92.7892 91.942 91.0019C90.7582 89.2147 89.0058 87.6712 86.6847 86.3714C84.3868 85.0716 81.5319 83.911 78.1199 82.8897L69.7988 80.383C64.2282 78.6886 59.9691 76.3791 57.0213 73.4545C54.0967 70.53 52.6344 66.8859 52.6344 62.5222C52.6344 58.8549 53.6093 55.6054 55.559 52.7737C57.5087 49.9188 60.1547 47.6789 63.4971 46.0542C66.8627 44.4294 70.6576 43.617 74.882 43.617C79.1296 43.617 82.8781 44.441 86.1277 46.089C89.3772 47.7137 91.9536 49.9536 93.8569 52.8085C95.7602 55.6402 96.8162 58.8781 97.0251 62.5222H92.7427Z" fill="#73FFB9"/>
</svg>
